<svg width="16" height="17" viewBox="0 0 16 17" fill="none" xmlns="http://www.w3.org/2000/svg">
<g clip-path="url(#clip0_1_1044)">
<path d="M14 13.1667H15.3333V14.5H0.666664V13.1667H2V3.16667C2 2.98986 2.07024 2.82029 2.19526 2.69526C2.32028 2.57024 2.48985 2.5 2.66666 2.5H9.33333C9.51014 2.5 9.67971 2.57024 9.80473 2.69526C9.92976 2.82029 10 2.98986 10 3.16667V13.1667H12.6667V7.83333H11.3333V6.5H13.3333C13.5101 6.5 13.6797 6.57024 13.8047 6.69526C13.9298 6.82029 14 6.98986 14 7.16667V13.1667ZM3.33333 3.83333V13.1667H8.66666V3.83333H3.33333ZM4.66666 7.83333H7.33333V9.16667H4.66666V7.83333ZM4.66666 5.16667H7.33333V6.5H4.66666V5.16667Z" fill="#18181B"/>
</g>
<defs>
<clipPath id="clip0_1_1044">
<rect width="16" height="16" fill="white" transform="translate(0 0.5)"/>
</clipPath>
</defs>
</svg>
