<svg width="16" height="16" viewBox="0 0 16 16" fill="none" xmlns="http://www.w3.org/2000/svg">
<path fill-rule="evenodd" clip-rule="evenodd" d="M4.66671 2.73685C4.66671 1.96172 5.26366 1.33334 6.00004 1.33334H10C10.7364 1.33334 11.3334 1.96172 11.3334 2.73685V4.14036H13.3334C14.0698 4.14036 14.6667 4.76873 14.6667 5.54387V13.2632C14.6667 14.0383 14.0698 14.6667 13.3334 14.6667H2.66671C1.93033 14.6667 1.33337 14.0383 1.33337 13.2632V5.54387C1.33337 4.76873 1.93033 4.14036 2.66671 4.14036H4.66671V2.73685ZM10 2.73685V4.14036H6.00004V2.73685H10ZM13.3334 5.54387H2.66671V6.94738H13.3334V5.54387ZM13.3334 8.35089H2.66671V13.2632H13.3334V8.35089Z" fill="#18181B"/>
</svg>
