<svg width="20" height="20" viewBox="0 0 20 20" fill="none" xmlns="http://www.w3.org/2000/svg">
<path fill-rule="evenodd" clip-rule="evenodd" d="M5.83335 3.42101C5.83335 2.45209 6.57955 1.66663 7.50002 1.66663H12.5C13.4205 1.66663 14.1667 2.45209 14.1667 3.42101V5.1754H16.6667C17.5872 5.1754 18.3334 5.96086 18.3334 6.92978V16.5789C18.3334 17.5478 17.5872 18.3333 16.6667 18.3333H3.33335C2.41288 18.3333 1.66669 17.5478 1.66669 16.5789V6.92978C1.66669 5.96086 2.41288 5.1754 3.33335 5.1754H5.83335V3.42101ZM12.5 3.42101V5.1754H7.50002V3.42101H12.5ZM16.6667 6.92978H3.33335V8.68417H16.6667V6.92978ZM16.6667 10.4386H3.33335V16.5789H16.6667V10.4386Z" fill="#3B82F6"/>
</svg>
