<svg width="24" height="24" viewBox="0 0 24 24" fill="none" xmlns="http://www.w3.org/2000/svg">
<path fill-rule="evenodd" clip-rule="evenodd" d="M17 2C14.7909 2 13 3.79086 13 6C13 8.20914 14.7909 10 17 10C19.2091 10 21 8.20914 21 6C21 3.79086 19.2091 2 17 2ZM15 6C15 4.89543 15.8954 4 17 4C18.1046 4 19 4.89543 19 6C19 7.10457 18.1046 8 17 8C15.8954 8 15 7.10457 15 6Z" fill="#3F3F46"/>
<path fill-rule="evenodd" clip-rule="evenodd" d="M17 14C14.7909 14 13 15.7909 13 18C13 20.2091 14.7909 22 17 22C19.2091 22 21 20.2091 21 18C21 15.7909 19.2091 14 17 14ZM15 18C15 16.8954 15.8954 16 17 16C18.1046 16 19 16.8954 19 18C19 19.1046 18.1046 20 17 20C15.8954 20 15 19.1046 15 18Z" fill="#3F3F46"/>
<path fill-rule="evenodd" clip-rule="evenodd" d="M6 8C3.79086 8 2 9.79086 2 12C2 14.2091 3.79086 16 6 16C8.20914 16 10 14.2091 10 12C10 9.79086 8.20914 8 6 8ZM4 12C4 10.8954 4.89543 10 6 10C7.10457 10 8 10.8954 8 12C8 13.1046 7.10457 14 6 14C4.89543 14 4 13.1046 4 12Z" fill="#3F3F46"/>
<path d="M8.94722 11.3944L14.9472 8.39445L14.0528 6.60559L8.0528 9.60559L8.94722 11.3944Z" fill="#3F3F46"/>
<path d="M8.0528 14.3944L14.0528 17.3944L14.9472 15.6056L8.94722 12.6056L8.0528 14.3944Z" fill="#3F3F46"/>
</svg>
