<svg width="16" height="17" viewBox="0 0 16 17" fill="none" xmlns="http://www.w3.org/2000/svg">
<path fill-rule="evenodd" clip-rule="evenodd" d="M5 3.16669C3.71133 3.16669 2.66666 4.21136 2.66666 5.50002C2.66666 6.78868 3.71133 7.83335 5 7.83335C6.28866 7.83335 7.33333 6.78868 7.33333 5.50002C7.33333 4.21136 6.28866 3.16669 5 3.16669ZM4 5.50002C4 4.94774 4.44771 4.50002 5 4.50002C5.55228 4.50002 6 4.94774 6 5.50002C6 6.05231 5.55228 6.50002 5 6.50002C4.44771 6.50002 4 6.05231 4 5.50002Z" fill="#3F3F46"/>
<path fill-rule="evenodd" clip-rule="evenodd" d="M11 3.16669C9.71133 3.16669 8.66666 4.21136 8.66666 5.50002C8.66666 6.78868 9.71133 7.83335 11 7.83335C12.2887 7.83335 13.3333 6.78868 13.3333 5.50002C13.3333 4.21136 12.2887 3.16669 11 3.16669ZM10 5.50002C10 4.94774 10.4477 4.50002 11 4.50002C11.5523 4.50002 12 4.94774 12 5.50002C12 6.05231 11.5523 6.50002 11 6.50002C10.4477 6.50002 10 6.05231 10 5.50002Z" fill="#3F3F46"/>
<path fill-rule="evenodd" clip-rule="evenodd" d="M7.99999 10.058C7.33642 9.11565 6.2401 8.50002 5 8.50002C2.97495 8.50002 1.33333 10.1416 1.33333 12.1667V14.5C1.33333 14.8682 1.63181 15.1667 1.99999 15.1667H14C14.3682 15.1667 14.6667 14.8682 14.6667 14.5V12.1667C14.6667 10.1416 13.025 8.50002 11 8.50002C9.75989 8.50002 8.66357 9.11565 7.99999 10.058ZM7.33333 13.8334L7.33333 12.1648C7.33229 10.877 6.28802 9.83335 5 9.83335C3.71133 9.83335 2.66666 10.878 2.66666 12.1667L2.66666 13.8334L7.33333 13.8334ZM8.66666 12.1648L8.66666 13.8334L13.3333 13.8334V12.1667C13.3333 10.878 12.2887 9.83335 11 9.83335C9.71197 9.83335 8.6677 10.877 8.66666 12.1648Z" fill="#3F3F46"/>
</svg>
