<svg width="24" height="24" viewBox="0 0 24 24" fill="none" xmlns="http://www.w3.org/2000/svg">
<path fill-rule="evenodd" clip-rule="evenodd" d="M20.3102 5.86109C18.1702 3.74678 14.6391 3.17863 12.2944 5.49517L12.0001 5.78603L11.7057 5.49517C9.36098 3.17863 5.82977 3.74677 3.68977 5.86109C1.43674 8.08707 1.43674 11.7012 3.68977 13.9272L3.70795 13.9451L12.0001 21.3399L20.2921 13.9451L20.3102 13.9272C22.5633 11.7012 22.5633 8.08707 20.3102 5.86109ZM13.7001 6.91789C15.069 5.56541 17.331 5.72911 18.9046 7.28381C20.3594 8.7212 20.3651 11.0432 18.9216 12.4875L12 18.6601L5.07835 12.4875C3.63488 11.0431 3.64057 8.7212 5.09542 7.28381C6.66901 5.72911 8.93109 5.56541 10.3 6.91789L12.0001 8.59753L13.7001 6.91789Z" fill="#3F3F46"/>
</svg>
